# xmcd CD database file
#
# Track frame offsets:
#	150
#	18302
#	31955
#	51957
#	65835
#	90015
#	107835
#	121435
#	141867
#	156587
#
# Disc length: 2384 seconds
#
# Revision: 1
# Processed by: cddbd v1.5.2PL0 Copyright (c) Steve Scherf et al.
# Submitted via: CDex 1.70beta3
#
DISCID=86094e0a
DTITLE=Keith Greko - At The Phoenix Playboy Club
DYEAR=1969
DGENRE=Jazz
TTITLE0=Have You Met Miss Jones
TTITLE1=Picadilly Bells
TTITLE2=Whistle While You Work
TTITLE3=My Only Love Is You
TTITLE4=Green Dolphin Street
TTITLE5=Love For Sale
TTITLE6=Cute
TTITLE7=My Favorite Things
TTITLE8=Waltz For Lisa
TTITLE9=I Feel Pretty
EXTD=YEAR: 1969
EXTT0=
EXTT1=
EXTT2=
EXTT3=
EXTT4=
EXTT5=
EXTT6=
EXTT7=
EXTT8=
EXTT9=
PLAYORDER=
